<svg fill="#ffffff" xmlns="http://www.w3.org/2000/svg" xmlns:xlink="http://www.w3.org/1999/xlink" version="1.1" x="0px" y="0px" viewBox="0 0 60 75" enable-background="new 0 0 60 60" xml:space="preserve"><path d="M49,6H13c-1.88,0-3.64,0.73-4.94,2.05C6.73,9.36,6,11.12,6,13c0,0.55,0.45,1,1,1h5v39c0,0.55,0.45,1,1,1h40  c0.55,0,1-0.45,1-1V13v-2C54,8.24,51.76,6,49,6z M9.47,9.46C10.41,8.52,11.66,8,13,8h32.03C44.39,8.84,44,9.87,44,11v1H13H8.1  C8.29,11.04,8.76,10.17,9.47,9.46z M52,52H14V14h31c0.55,0,1-0.45,1-1v-2c0-1.65,1.35-3,3-3s3,1.35,3,3v2V52z"/><path d="M19,26h8c0.55,0,1-0.45,1-1v-6c0-0.55-0.45-1-1-1h-8c-0.55,0-1,0.45-1,1v6C18,25.55,18.45,26,19,26z M20,20h6v4h-6V20z"/><path d="M48,19H32c-0.55,0-1,0.45-1,1s0.45,1,1,1h16c0.55,0,1-0.45,1-1S48.55,19,48,19z"/><path d="M48,23H32c-0.55,0-1,0.45-1,1s0.45,1,1,1h16c0.55,0,1-0.45,1-1S48.55,23,48,23z"/><path d="M48,29H19c-0.55,0-1,0.45-1,1s0.45,1,1,1h29c0.55,0,1-0.45,1-1S48.55,29,48,29z"/><path d="M48,33H19c-0.55,0-1,0.45-1,1s0.45,1,1,1h29c0.55,0,1-0.45,1-1S48.55,33,48,33z"/><path d="M44.5,42.53l0.17-1.07c0.07-0.46-0.19-0.92-0.63-1.08l-1.01-0.39l-0.39-1.01c-0.17-0.44-0.62-0.7-1.08-0.63l-1.07,0.17  l-0.85-0.68c-0.37-0.29-0.89-0.29-1.25,0l-0.85,0.68l-1.07-0.17c-0.47-0.07-0.92,0.19-1.08,0.63l-0.39,1.01l-1.01,0.39  c-0.44,0.17-0.7,0.62-0.63,1.08l0.17,1.07l-0.68,0.85c-0.29,0.37-0.29,0.89,0,1.25l0.68,0.85l-0.17,1.07  c-0.07,0.46,0.19,0.92,0.63,1.08l1.01,0.39l0.39,1.01c0.17,0.44,0.62,0.69,1.08,0.63l1.08-0.17l0.85,0.68  c0.18,0.15,0.4,0.22,0.63,0.22c0.22,0,0.44-0.07,0.63-0.22l0.85-0.68l1.07,0.17c0.46,0.07,0.92-0.19,1.08-0.63l0.39-1.01l1.01-0.39  c0.44-0.17,0.7-0.62,0.63-1.08l-0.17-1.07l0.68-0.85c0.29-0.37,0.29-0.89,0-1.25L44.5,42.53z M42.66,44.57  c-0.18,0.22-0.25,0.5-0.21,0.78l0.11,0.71l-0.67,0.26c-0.26,0.1-0.47,0.31-0.57,0.57l-0.26,0.67l-0.71-0.11  c-0.28-0.04-0.56,0.03-0.78,0.21L39,48.12l-0.57-0.45c-0.18-0.14-0.4-0.22-0.63-0.22c-0.05,0-0.1,0-0.15,0.01l-0.72,0.11l-0.26-0.67  c-0.1-0.26-0.31-0.47-0.57-0.57l-0.67-0.26l0.11-0.71c0.04-0.28-0.03-0.56-0.21-0.78L34.88,44l0.45-0.57  c0.18-0.22,0.25-0.5,0.21-0.78l-0.11-0.71l0.67-0.26c0.26-0.1,0.47-0.31,0.57-0.57l0.26-0.67l0.71,0.11  c0.28,0.04,0.56-0.03,0.78-0.21L39,39.88l0.57,0.45c0.22,0.17,0.5,0.25,0.78,0.21l0.71-0.11l0.26,0.67c0.1,0.26,0.31,0.47,0.57,0.57  l0.67,0.26l-0.11,0.71c-0.04,0.28,0.03,0.56,0.21,0.78L43.12,44L42.66,44.57z"/></svg>