<svg xmlns="http://www.w3.org/2000/svg" xmlns:xlink="http://www.w3.org/1999/xlink" version="1.1" x="0px" y="0px" viewBox="0 0 60 75" enable-background="new 0 0 60 60" xml:space="preserve" fill="#ffffff"><path d="M46.71,21.51C45.83,18.59,43.1,16.5,40,16.5c-0.87,0-1.72,0.16-2.51,0.46c-0.7-3.12-3.5-5.46-6.83-5.46  c-1.53,0-2.97,0.48-4.17,1.38C24.6,10.75,21.88,9.5,19,9.5c-5.51,0-10,4.49-10,10c0,1.01,0.15,2.01,0.45,2.97  C7.33,23.71,6,25.99,6,28.5c0,3.86,3.14,7,7,7h12.1c0.18,0.88,0.6,1.66,1.17,2.3l-4.39,5.85c-0.28-0.09-0.58-0.15-0.89-0.15  c-1.65,0-3,1.35-3,3s1.35,3,3,3s3-1.35,3-3c0-0.61-0.19-1.18-0.5-1.66l4.38-5.83c0.65,0.31,1.36,0.49,2.13,0.49  c0.79,0,1.52-0.2,2.18-0.52l5.3,6.9C37.18,46.34,37,46.9,37,47.5c0,1.65,1.35,3,3,3s3-1.35,3-3s-1.35-3-3-3  c-0.33,0-0.63,0.07-0.93,0.16l-5.31-6.91c0.55-0.64,0.96-1.4,1.13-2.25H47c3.86,0,7-3.14,7-7C54,24.54,50.73,21.31,46.71,21.51z   M21,47.5c-0.55,0-1-0.45-1-1s0.45-1,1-1s1,0.45,1,1S21.55,47.5,21,47.5z M27,34.5c0-1.65,1.35-3,3-3c0.39,0,0.76,0.08,1.11,0.22  c0,0,0,0,0,0c0,0,0,0,0,0c1.1,0.44,1.89,1.52,1.89,2.78c0,1.65-1.35,3-3,3S27,36.15,27,34.5z M41,47.5c0,0.55-0.45,1-1,1  s-1-0.45-1-1s0.45-1,1-1S41,46.95,41,47.5z M47,33.5H34.9c-0.27-1.32-1.07-2.45-2.16-3.17l1.14-2.84c0.04,0,0.08,0.01,0.12,0.01  c1.65,0,3-1.35,3-3s-1.35-3-3-3s-3,1.35-3,3c0,0.9,0.4,1.69,1.03,2.24l-1.14,2.85C30.6,29.54,30.3,29.5,30,29.5  c-1.37,0-2.61,0.56-3.52,1.45l-5.58-3.72c0.06-0.23,0.1-0.48,0.1-0.73c0-1.65-1.35-3-3-3s-3,1.35-3,3s1.35,3,3,3  c0.67,0,1.29-0.23,1.79-0.61l5.58,3.73c-0.12,0.28-0.21,0.58-0.27,0.88H13c-2.76,0-5-2.24-5-5c0-2.02,1.21-3.83,3.08-4.62  c0.51-0.21,0.75-0.8,0.54-1.31C11.21,21.6,11,20.56,11,19.5c0-4.41,3.59-8,8-8c2.6,0,5.04,1.27,6.54,3.4  c0.17,0.24,0.44,0.4,0.74,0.42c0.3,0.02,0.59-0.09,0.8-0.3c0.95-0.98,2.22-1.52,3.58-1.52c2.76,0,5,2.24,5,5.02  c0,0.37,0.21,0.71,0.53,0.88c0.33,0.17,0.73,0.15,1.03-0.06c0.81-0.55,1.77-0.85,2.78-0.85c2.45,0,4.57,1.83,4.94,4.25  c0.04,0.27,0.19,0.5,0.41,0.66c0.22,0.16,0.49,0.22,0.76,0.17c0.32-0.06,0.62-0.08,0.9-0.08c2.76,0,5,2.24,5,5S49.76,33.5,47,33.5z   M34,25.5c-0.13,0-0.25-0.03-0.36-0.07c0,0-0.01,0-0.01-0.01c-0.01,0-0.02,0-0.03-0.01c-0.35-0.15-0.6-0.51-0.6-0.92  c0-0.55,0.45-1,1-1s1,0.45,1,1S34.55,25.5,34,25.5z M18,27.5c-0.55,0-1-0.45-1-1s0.45-1,1-1s1,0.45,1,1S18.55,27.5,18,27.5z"/></svg>