<svg fill="#ffffff" xmlns="http://www.w3.org/2000/svg" xmlns:xlink="http://www.w3.org/1999/xlink" version="1.1" x="0px" y="0px" viewBox="0 0 60 75" enable-background="new 0 0 60 60" xml:space="preserve"><g><path d="M54,37.5v5c0,0.55-0.45,1-1,1H35v3.17c0,0.27,0.1,0.52,0.29,0.71l3.42,3.41c0.28,0.29,0.37,0.72,0.21,1.09   C38.77,52.26,38.4,52.5,38,52.5H22c-0.4,0-0.77-0.24-0.92-0.62c-0.16-0.37-0.07-0.8,0.21-1.09l3.42-3.41   C24.9,47.19,25,46.94,25,46.67V43.5H7c-0.55,0-1-0.45-1-1v-5H54z"/><path d="M53,7.5H7c-0.55,0-1,0.45-1,1v27h48v-27C54,7.95,53.55,7.5,53,7.5z M23.05,28.45c0.39,0.39,0.39,1.02,0,1.41   c-0.2,0.2-0.45,0.3-0.71,0.3c-0.25,0-0.51-0.1-0.7-0.3l-5.66-5.65c-0.39-0.39-0.39-1.03,0-1.42l5.66-5.65   c0.39-0.39,1.02-0.39,1.41,0c0.39,0.39,0.39,1.02,0,1.41L18.1,23.5L23.05,28.45z M34.41,14.89l-7.29,17   c-0.16,0.38-0.53,0.61-0.92,0.61c-0.13,0-0.27-0.03-0.39-0.08c-0.51-0.22-0.75-0.81-0.53-1.31l7.29-17   c0.21-0.51,0.81-0.75,1.31-0.53C34.39,13.8,34.62,14.39,34.41,14.89z M43.71,24.21l-5.66,5.65c-0.2,0.2-0.45,0.3-0.71,0.3   c-0.25,0-0.51-0.1-0.7-0.3c-0.39-0.39-0.39-1.02,0-1.41l4.95-4.95l-4.95-4.95c-0.39-0.39-0.39-1.02,0-1.41   c0.39-0.39,1.02-0.39,1.41,0l5.66,5.65C43.89,22.98,44,23.23,44,23.5C44,23.77,43.89,24.02,43.71,24.21z"/></g></svg>