<svg fill="#ffffff" xmlns="http://www.w3.org/2000/svg" xmlns:xlink="http://www.w3.org/1999/xlink" version="1.1" x="0px" y="0px" viewBox="0 0 60 75" enable-background="new 0 0 60 60" xml:space="preserve"><path d="M51,10H9c-1.65,0-3,1.35-3,3v26c0,1.65,1.35,3,3,3h16.38l3.72,7.45C29.28,49.79,29.62,50,30,50s0.72-0.21,0.89-0.55  L34.62,42H51c1.65,0,3-1.35,3-3V13C54,11.35,52.65,10,51,10z M52,39c0,0.55-0.45,1-1,1H34c-0.38,0-0.72,0.21-0.89,0.55L30,46.76  l-3.11-6.21C26.72,40.21,26.38,40,26,40H9c-0.55,0-1-0.45-1-1V13c0-0.55,0.45-1,1-1h42c0.55,0,1,0.45,1,1V39z"/><path d="M42,16h-6c-0.55,0-1,0.45-1,1v3h-5c-0.55,0-1,0.45-1,1v3h-5c-0.55,0-1,0.45-1,1v3h-5c-0.55,0-1,0.45-1,1v6  c0,0.55,0.45,1,1,1h6h6h6h6c0.55,0,1-0.45,1-1V17C43,16.45,42.55,16,42,16z M19,30h4v4h-4V30z M25,29v-3h4v8h-4V29z M31,25v-3h4v12  h-4V25z M41,34h-4V21v-3h4V34z"/></svg>