<svg fill="#ffffff" xmlns="http://www.w3.org/2000/svg" xmlns:xlink="http://www.w3.org/1999/xlink" version="1.1" x="0px" y="0px" viewBox="0 0 64 80" style="enable-background:new 0 0 64 64;" xml:space="preserve"><path d="M2.553,52.895L4,53.618V61c0,0.552,0.447,1,1,1h6c0.553,0,1-0.448,1-1v-7.382l1-0.5l1,0.5V61c0,0.552,0.447,1,1,1h6  c0.553,0,1-0.448,1-1v-7.382l1.447-0.724C23.786,52.725,24,52.379,24,52v-5c0-2-1.188-3.717-2.889-4.516  C21.658,41.799,22,40.943,22,40c0-2.206-1.794-4-4-4s-4,1.794-4,4c0,0.943,0.342,1.799,0.889,2.484  c-0.752,0.353-1.398,0.887-1.889,1.547c-0.492-0.66-1.137-1.194-1.889-1.547C11.658,41.799,12,40.943,12,40c0-2.206-1.794-4-4-4  s-4,1.794-4,4c0,0.943,0.342,1.799,0.889,2.484C3.188,43.283,2,45,2,47v5C2,52.379,2.214,52.725,2.553,52.895z M18,38  c1.103,0,2,0.897,2,2s-0.897,2-2,2s-2-0.897-2-2S16.897,38,18,38z M17,44h2c1.654,0,3,1.346,3,3v4.382l-1.447,0.724  C20.214,52.275,20,52.621,20,53v7h-4v-7c0-0.379-0.214-0.725-0.553-0.895L14,51.382V47C14,45.346,15.346,44,17,44z M8,38  c1.103,0,2,0.897,2,2s-0.897,2-2,2s-2-0.897-2-2S6.897,38,8,38z M4,47c0-1.654,1.346-3,3-3h2c1.654,0,3,1.346,3,3v4.382  l-1.447,0.724C10.214,52.275,10,52.621,10,53v7H6v-7c0-0.379-0.214-0.725-0.553-0.895L4,51.382V47z"/><path d="M32,28c5.514,0,10-4.486,10-10S37.514,8,32,8s-10,4.486-10,10S26.486,28,32,28z M32,10c4.411,0,8,3.589,8,8s-3.589,8-8,8  s-8-3.589-8-8S27.589,10,32,10z"/><path d="M17,14c-0.553,0-1,0.448-1,1v6c0,0.552,0.447,1,1,1h1.594c0.274,0.918,0.642,1.804,1.1,2.649l-1.128,1.129  c-0.391,0.391-0.391,1.023,0,1.414l4.242,4.243c0.375,0.375,1.039,0.375,1.414,0l1.129-1.129c0.845,0.458,1.731,0.826,2.649,1.1V33  c0,0.552,0.447,1,1,1h6c0.553,0,1-0.448,1-1v-1.594c0.918-0.274,1.805-0.642,2.649-1.1l1.129,1.129c0.375,0.375,1.039,0.375,1.414,0  l4.242-4.243c0.391-0.391,0.391-1.023,0-1.414l-1.128-1.129c0.458-0.845,0.825-1.731,1.1-2.649H47c0.553,0,1-0.448,1-1v-6  c0-0.552-0.447-1-1-1h-1.594c-0.274-0.918-0.642-1.804-1.1-2.649l1.128-1.129c0.391-0.391,0.391-1.023,0-1.414l-4.242-4.243  c-0.375-0.375-1.039-0.375-1.414,0l-1.129,1.129c-0.845-0.458-1.731-0.826-2.649-1.1V3c0-0.552-0.447-1-1-1h-6c-0.553,0-1,0.448-1,1  v1.594c-0.918,0.274-1.805,0.642-2.649,1.1l-1.129-1.129c-0.375-0.375-1.039-0.375-1.414,0l-4.242,4.243  c-0.391,0.391-0.391,1.023,0,1.414l1.128,1.129c-0.458,0.845-0.825,1.731-1.1,2.649H17z M20.334,15.23  c0.295-1.242,0.786-2.426,1.46-3.519c0.244-0.395,0.185-0.904-0.144-1.232l-0.964-0.965l2.828-2.829l0.965,0.965  c0.326,0.327,0.839,0.387,1.232,0.144c1.093-0.675,2.276-1.166,3.519-1.46C29.682,6.228,30,5.825,30,5.362V4h4v1.362  c0,0.463,0.318,0.866,0.77,0.973c1.242,0.294,2.426,0.785,3.519,1.46c0.393,0.243,0.904,0.183,1.232-0.144l0.965-0.965l2.828,2.829  l-0.964,0.965c-0.328,0.328-0.388,0.838-0.144,1.232c0.674,1.093,1.165,2.277,1.46,3.519c0.106,0.451,0.509,0.77,0.973,0.77H46v4  h-1.361c-0.464,0-0.866,0.318-0.973,0.77c-0.295,1.242-0.786,2.426-1.46,3.519c-0.244,0.395-0.185,0.904,0.144,1.232l0.964,0.965  l-2.828,2.829l-0.965-0.965c-0.328-0.329-0.84-0.388-1.232-0.144c-1.093,0.675-2.276,1.166-3.519,1.46  c-0.451,0.107-0.77,0.51-0.77,0.973V32h-4v-1.362c0-0.463-0.318-0.866-0.77-0.973c-1.242-0.294-2.426-0.785-3.519-1.46  c-0.394-0.244-0.906-0.185-1.232,0.144l-0.965,0.965l-2.828-2.829l0.964-0.965c0.328-0.328,0.388-0.838,0.144-1.232  c-0.674-1.093-1.165-2.277-1.46-3.519C20.228,20.318,19.825,20,19.361,20H18v-4h1.361C19.825,16,20.228,15.682,20.334,15.23z"/><path d="M28.932,19.443l-0.391,2.396c-0.062,0.378,0.099,0.758,0.411,0.978c0.313,0.221,0.725,0.242,1.061,0.058L32,21.776  l1.987,1.099C34.139,22.958,34.306,23,34.472,23c0.202,0,0.404-0.062,0.576-0.183c0.312-0.22,0.473-0.6,0.411-0.978l-0.391-2.396  l1.647-1.689c0.262-0.268,0.352-0.66,0.232-1.016s-0.427-0.615-0.797-0.671l-2.236-0.342l-1.01-2.15C32.74,13.224,32.388,13,32,13  s-0.74,0.224-0.905,0.575l-1.01,2.15l-2.236,0.342c-0.37,0.056-0.678,0.315-0.797,0.671s-0.029,0.748,0.232,1.016L28.932,19.443z   M30.915,17.622c0.329-0.05,0.612-0.261,0.754-0.563L32,16.353l0.331,0.705c0.142,0.302,0.425,0.513,0.754,0.563l0.84,0.128  l-0.641,0.657c-0.222,0.227-0.322,0.546-0.271,0.859l0.141,0.862l-0.669-0.37c-0.151-0.083-0.317-0.125-0.484-0.125  s-0.333,0.042-0.484,0.125l-0.669,0.37l0.141-0.862c0.051-0.313-0.05-0.632-0.271-0.859l-0.641-0.657L30.915,17.622z"/><path d="M59,38H41c-1.654,0-3,1.346-3,3v13c0,1.654,1.346,3,3,3h6v3h-4v2h14v-2h-4v-3h6c1.654,0,3-1.346,3-3V41  C62,39.346,60.654,38,59,38z M51,60h-2v-3h2V60z M60,54c0,0.551-0.448,1-1,1H41c-0.552,0-1-0.449-1-1V41c0-0.551,0.448-1,1-1h18  c0.552,0,1,0.449,1,1V54z"/><path d="M54.707,43.293l-1.414,1.414L55.586,47l-2.293,2.293l1.414,1.414l3-3c0.391-0.391,0.391-1.023,0-1.414L54.707,43.293z"/><path d="M46.293,43.293l-3,3c-0.391,0.391-0.391,1.023,0,1.414l3,3l1.414-1.414L45.414,47l2.293-2.293L46.293,43.293z"/><rect x="45.475" y="46" transform="matrix(0.0996 -0.995 0.995 0.0996 -1.2961 92.5677)" width="10.05" height="2"/><rect x="50" y="34" width="2" height="2"/><rect x="50" y="30" width="2" height="2"/><rect x="50" y="26" width="2" height="2"/><rect x="50" y="22" width="2" height="2"/><rect x="50" y="18" width="2" height="2"/><rect x="12" y="34" width="2" height="2"/><rect x="12" y="30" width="2" height="2"/><rect x="12" y="26" width="2" height="2"/><rect x="12" y="22" width="2" height="2"/><rect x="12" y="18" width="2" height="2"/></svg>