<svg fill="#ffffff" xmlns="http://www.w3.org/2000/svg" xmlns:xlink="http://www.w3.org/1999/xlink" version="1.1" x="0px" y="0px" viewBox="0 0 64 80" style="enable-background:new 0 0 64 64;" xml:space="preserve"><g><path d="M47.542,25.951l1.231-2.461l-5.263-5.262l-2.461,1.23c-1.403-0.819-2.899-1.44-4.46-1.851L35.721,15h-7.441l-0.869,2.606   c-1.561,0.411-3.057,1.032-4.46,1.851l-2.461-1.23l-5.263,5.262l1.231,2.461c-0.819,1.403-1.44,2.899-1.852,4.46L12,31.279v7.441   l2.606,0.869c0.411,1.561,1.032,3.057,1.852,4.46l-1.231,2.461l5.263,5.262L21,51.518v0.033c0,1.076,0.253,2.152,0.73,3.113   L24,59.234v3.721l18,0.047v-3.669l1.6-2.133c0.903-1.204,1.4-2.695,1.4-4.2v-2.716l3.773-3.773l-1.231-2.461   c0.819-1.403,1.44-2.899,1.852-4.46L52,38.721v-7.441l-2.606-0.869C48.982,28.85,48.361,27.354,47.542,25.951z M43,53   c0,1.075-0.355,2.141-1,3l-2,2.667v2.331L26,60.96v-2.195l-2.479-4.992C23.181,53.087,23,52.318,23,51.55v-4.108   c0-1.125-0.267-2.252-0.77-3.259l-1.165-2.33C21.022,41.768,21,41.671,21,41.576c0-0.341,0.277-0.618,0.714-0.618   c2.915,0,5.286,2.372,5.286,5.287v1.713v2h2v-2v-1.713V28c0-0.551,0.448-1,1-1s1,0.449,1,1v12v4h2v-4c0-0.551,0.448-1,1-1   s1,0.449,1,1v4h2v-4c0-0.551,0.448-1,1-1s1,0.449,1,1v2v2h2v-2c0-0.551,0.448-1,1-1s1,0.449,1,1V53z M20,35c0-6.617,5.383-12,12-12   s12,5.383,12,12c0,1.479-0.27,2.906-0.787,4.261C42.842,39.096,42.432,39,42,39c-0.395,0-0.77,0.081-1.116,0.22   C40.539,37.945,39.383,37,38,37c-0.771,0-1.468,0.301-2,0.78c-0.532-0.48-1.229-0.78-2-0.78c-0.352,0-0.686,0.072-1,0.184V28   c0-1.654-1.346-3-3-3s-3,1.346-3,3v13.257c-1.341-1.411-3.245-2.299-5.382-2.299c-0.311,0-0.606,0.064-0.884,0.164   C20.252,37.807,20,36.426,20,35z M50,37.279l-2.294,0.765l-0.126,0.547c-0.396,1.725-1.078,3.367-2.026,4.881l-0.298,0.476   l1.084,2.168L45,47.456V42c0-0.436-0.098-0.848-0.267-1.223C45.56,38.958,46,37.022,46,35c0-7.72-6.28-14-14-14s-14,6.28-14,14   c0,1.956,0.413,3.837,1.19,5.609c-0.12,0.3-0.19,0.625-0.19,0.967c0,0.404,0.096,0.809,0.276,1.172l1.165,2.331   C20.807,45.809,21,46.626,21,47.442v1.839l-0.116,0.058l-3.224-3.223l1.084-2.168l-0.298-0.476   c-0.948-1.514-1.63-3.156-2.026-4.881l-0.126-0.547L14,37.279v-4.559l2.294-0.765l0.126-0.547c0.396-1.725,1.078-3.367,2.026-4.881   l0.298-0.476l-1.084-2.168l3.224-3.223l2.167,1.083l0.477-0.298c1.514-0.949,3.156-1.63,4.881-2.026l0.548-0.125L29.721,17h4.559   l0.765,2.294l0.548,0.125c1.725,0.396,3.367,1.078,4.881,2.026l0.477,0.298l2.167-1.083l3.224,3.223l-1.084,2.168l0.298,0.476   c0.948,1.514,1.63,3.156,2.026,4.881l0.126,0.547L50,32.721V37.279z"/><path d="M6,12c0,1.654,1.346,3,3,3s3-1.346,3-3s-1.346-3-3-3S6,10.346,6,12z M10,12c0,0.551-0.448,1-1,1s-1-0.449-1-1s0.448-1,1-1   S10,11.449,10,12z"/><path d="M9,7c1.335,0,2.591,0.52,3.535,1.464l1.414-1.414C12.627,5.728,10.87,5,9,5S5.373,5.728,4.051,7.05l1.414,1.414   C6.409,7.52,7.665,7,9,7z"/><path d="M15.364,5.636l1.414-1.414c-4.289-4.289-11.268-4.289-15.557,0l1.414,1.414C6.146,2.127,11.854,2.127,15.364,5.636z"/><polygon points="12.293,22.707 13.707,21.293 9,16.586 4.293,21.293 5.707,22.707 8,20.414 8,42 10,42 10,20.414  "/><path d="M47,1v18h16V1H47z M61,17H49V3h12V17z"/><rect x="51" y="5" width="8" height="2"/><rect x="51" y="9" width="8" height="2"/><rect x="51" y="13" width="8" height="2"/><rect x="8" y="44" width="2" height="2"/><polygon points="50.293,25.293 51.707,26.707 54,24.414 54,46 56,46 56,24.414 58.293,26.707 59.707,25.293 55,20.586  "/><rect x="54" y="48" width="2" height="2"/></g></svg>